# xmcd
#
# Track frame offsets: 
#        150
#        13840
#        27293
#        41230
#        54661
#        67988
#        79855
#        93708
#        107024
#        120148
#        133321
#        144971
#        157462
#        169704
#        181978
#        194863
#        208627
#        223607
#
# Disc length: 3163 seconds
#
# Revision: 3
# Processed by: cddbd v1.5.2PL0 Copyright (c) Steve Scherf et al.
# Submitted via: ExactAudioCopy v1.0b3
#
DISCID=0f0c5912
DTITLE=Erroll Garner - Erroll Garner_Honeysuckle Rose (Quadromania)_CD
DTITLE=2
DYEAR=2005
DGENRE=Jazz
TTITLE0=Penthouse Serenade
TTITLE1=Love Walked In
TTITLE2=September Song
TTITLE3=Body And Soul
TTITLE4=All The Things You Are
TTITLE5=I Don't Stand A Ghost Of A Chance With You
TTITLE6=Yesterdays
TTITLE7=Goodbye
TTITLE8=A Cottage For Sale
TTITLE9=I'm In The Mood For Love
TTITLE10=I Can't Believe That You're In Love With Me
TTITLE11=More Than You Know
TTITLE12=Undecided
TTITLE13=Red Sails In The Sunset
TTITLE14=All Of Me
TTITLE15=Over The Rainbow
TTITLE16=Cherokee - Part 1
TTITLE17=Cherokee - Part 2
EXTD=YEAR: 2002
EXTT0=
EXTT1=
EXTT2=
EXTT3=
EXTT4=
EXTT5=
EXTT6=
EXTT7=
EXTT8=
EXTT9=
EXTT10=
EXTT11=
EXTT12=
EXTT13=
EXTT14=
EXTT15=
EXTT16=
EXTT17=
PLAYORDER=
